<svg xmlns="http://www.w3.org/2000/svg" viewBox="0 0 1517.58 204.82"><defs><style>.cls-1,.cls-4{fill:#fff;}.cls-2{fill:#35a5de;}.cls-3{fill:#2a3f60;}.cls-4{stroke:#3072ba;stroke-miterlimit:10;}.cls-5{fill:#6dc8e7;}</style></defs><g id="레이어_2" data-name="레이어 2"><g id="레이어_1-2" data-name="레이어 1"><path class="cls-1" d="M792,1.75H677a5,5,0,0,0-5,5v22a5,5,0,0,0,5,5h36.5a5,5,0,0,1,5,5v111a5,5,0,0,0,5,5h22a5,5,0,0,0,5-5v-111a5,5,0,0,1,5-5H792a5,5,0,0,0,5-5v-22A5,5,0,0,0,792,1.75Z"/><path class="cls-1" d="M828.05,57.81v-2a5,5,0,0,0-5-5h-20a5,5,0,0,0-5,5v94a5,5,0,0,0,5,5h20a5,5,0,0,0,5-5v-43c0-17.6,22.59-22,32.39-23a5,5,0,0,0,4.45-5V57.73a5,5,0,0,0-5.5-5c-10.95,1-18.32,4.82-23.15,8.82A5,5,0,0,1,828.05,57.81Z"/><path class="cls-1" d="M915.06,154.79H893.83a5.21,5.21,0,0,1-5.39-5v-94a5.21,5.21,0,0,1,5.39-5h21.23a5.2,5.2,0,0,1,5.38,5v94A5.2,5.2,0,0,1,915.06,154.79Z"/><circle class="cls-1" cx="904.44" cy="15.75" r="15.75"/><circle class="cls-2" cx="1099.77" cy="139.79" r="15"/><path class="cls-1" d="M1013.6,45.62A55.47,55.47,0,0,0,977.52,56.7v-.88a5,5,0,0,0-5-5h-20a5,5,0,0,0-5,5v144a5,5,0,0,0,5,5h20a5,5,0,0,0,5-5v-45a5,5,0,0,1,7.34-4.41,55.67,55.67,0,1,0,28.74-104.8Zm-9.38,75.2a19.7,19.7,0,1,1,17.58-17.59A19.7,19.7,0,0,1,1004.22,120.82Z"/><path class="cls-3" d="M1204.38,120.4a25.7,25.7,0,1,1,0-41.24,5,5,0,0,0,7.56-1.94,56.77,56.77,0,0,1,7.44-12.55,10.05,10.05,0,0,0-3-15,57.13,57.13,0,1,0-.08,100.31,10.05,10.05,0,0,0,3.06-15.07,57.39,57.39,0,0,1-7.44-12.55A5,5,0,0,0,1204.38,120.4Z"/><path class="cls-3" d="M1288.73,42.65a57.12,57.12,0,1,0,57.12,57.12A57.12,57.12,0,0,0,1288.73,42.65Zm0,82.82a25.7,25.7,0,1,1,25.7-25.7A25.71,25.71,0,0,1,1288.73,125.47Z"/><path class="cls-3" d="M1451.05,61.09c-25.57-22.86-42.55-10.6-52.06-2.25a3.31,3.31,0,0,1-5.5-2.48V54.1a3.31,3.31,0,0,0-3.3-3.31H1366.8a3.31,3.31,0,0,0-3.31,3.31v97.38a3.31,3.31,0,0,0,3.31,3.31h23.39a3.31,3.31,0,0,0,3.3-3.31V94.63c0-17.82,14.94-27.54,28.46-15.92l.29.25a13.2,13.2,0,0,1,4.43,9.92v62.33a3.31,3.31,0,0,0,3.31,3.31h23.38a3.31,3.31,0,0,0,3.31-3.31V85.36h0a13.26,13.26,0,0,1,9-12.58c9.9-3.36,14.36,1.74,19.3,6,2.94,2.54,2.64,6.21,2.64,10.09v62.33a3.31,3.31,0,0,0,3.3,3.31h23.39a3.31,3.31,0,0,0,3.31-3.31V81.92c0-17.43-13.14-32.4-30.5-33.84-14.95-1.23-26.26,7.71-31.48,12.91A3.33,3.33,0,0,1,1451.05,61.09Z"/><path class="cls-1" d="M646.14,121.86a25.71,25.71,0,1,1,0-41.24,5,5,0,0,0,7.56-1.94,56.54,56.54,0,0,1,7.44-12.55,10,10,0,0,0-3-15,57.12,57.12,0,1,0-.07,100.31,10.06,10.06,0,0,0,3.06-15.07,56.83,56.83,0,0,1-7.44-12.56A5,5,0,0,0,646.14,121.86Z"/><path class="cls-1" d="M280.05,85.35a4,4,0,0,1,2.3-5.95c9.49-2.81,28.49-12.06,28.49-41.08,0-37-30-34.82-32.56-34.56l-.38,0H205a4,4,0,0,0-4,4V153.35a4,4,0,0,0,4,4h31a4,4,0,0,0,4-4V96.14c0-7.14,10.88-2.7,13.49-.06a32,32,0,0,1,5.11,7.79c9.23,17.52,19.57,34.43,29.59,51.5a4,4,0,0,0,3.45,2h26.09a4,4,0,0,0,3.4-6.12Zm-39.7-20.58V29.61a4,4,0,0,1,4.05-4c7.84.09,24.34,2.4,24.34,20.18,0,17.39-15.78,21.81-23.81,22.94A4,4,0,0,1,240.35,64.77Z"/><path class="cls-4" d="M386.22,45.56c-66.52,0-59.84,63.14-59.25,67.84,0,.18,0,.36,0,.55.09,3.81,2.38,45.4,57.39,45.4,45.12,0,45.87-20.89,44.06-30a5,5,0,0,0-4.9-4.14H412.9a4.85,4.85,0,0,0-2.26.56c-6.62,3.5-43,21.35-49.7-5.71a5.14,5.14,0,0,1,4.86-6.41h64.62a5,5,0,0,0,4.87-4C438.52,95,445.1,45.56,386.22,45.56ZM366.8,91.12a5.16,5.16,0,0,1-4.73-6.85c2.08-6.46,7.3-15.17,20.3-15.17s18.22,8.71,20.3,15.17a5.16,5.16,0,0,1-4.74,6.85Z"/><path class="cls-1" d="M466.36,59.3c-3.5,8.17-1.68,21.26,8.23,21.26,5.56,0,10.1-4.39,14.58-7.07,7.52-4.49,14.14-5.75,22.81-5.07a9.61,9.61,0,0,1,5.89,2.07c3.17,2.91,2.52,8.56,2.18,12.38-.55,6.13-.3,8.24-5.91,9.11-13.12,2-25-.69-37.95,4.8-19.32,8.17-31.49,34.61-12.88,50,15,12.36,35.95,13,53.56,6.6a1.6,1.6,0,0,1,2.14,1.51,1.59,1.59,0,0,0,1.6,1.59h29.26a1.68,1.68,0,0,0,2-2c.41-25.31,1.46-50.72.31-76C551.44,60.82,532.53,54,517.69,50c-13.74-3.73-35.53-4.59-47.61,4.26A12.06,12.06,0,0,0,466.36,59.3Zm52.51,65.61c-4.54,10.64-32.79,20.56-32.52,2.42.21-14.09,24.68-14.19,31.12-14A1.6,1.6,0,0,1,519,115v9.3A1.65,1.65,0,0,1,518.87,124.91Z"/><path class="cls-1" d="M50.33,156a15.43,15.43,0,0,1-7.88-2c-8.1-4.67-11-16.84-8.22-34.26C36.92,103,44.56,83.05,55.75,63.67,79.55,22.44,111-2.46,127.34,7c8.09,4.67,11,16.84,8.22,34.26C132.87,58,125.22,77.94,114,97.32h0c-11.19,19.38-24.62,36-37.81,46.68C66.47,151.93,57.57,156,50.33,156ZM119.37,9C104,9,78.39,32.47,59.22,65.68c-10.95,19-18.42,38.39-21,54.7-2.48,15.44-.19,26.43,6.26,30.16s17.12.21,29.25-9.65c12.82-10.42,25.91-26.61,36.86-45.57h0c11-19,18.42-38.4,21-54.71,2.47-15.44.19-26.43-6.27-30.16A11.7,11.7,0,0,0,119.37,9Z"/><path class="cls-3" d="M119.48,156c-17.31,0-43.33-23.35-63.73-58.69C44.56,77.94,36.92,58,34.23,41.24c-2.8-17.42.12-29.59,8.22-34.26S62.54,5.86,76.23,17C89.42,27.71,102.85,44.29,114,63.67s18.83,39.29,21.52,56.08c2.79,17.42-.13,29.59-8.22,34.26A15.45,15.45,0,0,1,119.48,156ZM50.33,9a11.63,11.63,0,0,0-5.88,1.45C38,14.18,35.71,25.17,38.19,40.61c2.61,16.31,10.08,35.74,21,54.71C78.39,128.52,104,152,119.37,152a11.7,11.7,0,0,0,6-1.49c6.46-3.73,8.74-14.72,6.27-30.16-2.62-16.31-10.09-35.74-21-54.7h0c-11-19-24-35.16-36.86-45.57C64.74,12.82,56.58,9,50.33,9Z"/><circle class="cls-3" cx="84.89" cy="80.5" r="15.45"/><path class="cls-3" d="M63,109q1.47,2.22,3,4.36c1.73.15,3.48.28,5.26.39q-1.53-2.09-3-4.26C66.41,109.35,64.68,109.18,63,109Z"/><path class="cls-5" d="M84.89,114.15C37.29,114.15,0,99.37,0,80.5S37.29,46.84,84.89,46.84s84.89,14.79,84.89,33.66S132.49,114.15,84.89,114.15Zm0-63.3C41.05,50.85,4,64.43,4,80.5s37,29.64,80.88,29.64,80.88-13.58,80.88-29.64S128.73,50.85,84.89,50.85Z"/><path class="cls-3" d="M128.1,105.42c.4,1.32.77,2.64,1.12,3.94,1.32-.31,2.61-.64,3.89-1-.35-1.31-.73-2.62-1.12-3.95C130.72,104.77,129.42,105.1,128.1,105.42Z"/><path class="cls-1" d="M84.93,130.38c-1,1-1.9,2-2.86,3,.93,1,1.87,1.94,2.8,2.87.95-.95,1.91-1.93,2.86-2.94C86.8,132.33,85.86,131.37,84.93,130.38Z"/><path class="cls-1" d="M84.93,30.65c.93-1,1.87-1.95,2.8-2.88-1-1-1.91-2-2.86-2.94-.93.93-1.87,1.88-2.8,2.87C83,28.65,84,29.64,84.93,30.65Z"/><path class="cls-3" d="M106.81,52q-1.47-2.22-3-4.36c-1.71-.15-3.45-.28-5.2-.39q1.52,2.1,3,4.26C103.39,51.68,105.11,51.84,106.81,52Z"/><path class="cls-1" d="M128.1,55.61c1.32.32,2.62.65,3.89,1,.39-1.33.77-2.64,1.12-4-1.28-.34-2.57-.67-3.89-1C128.87,53,128.5,54.29,128.1,55.61Z"/><path class="cls-1" d="M41.68,105.42c-1.32-.32-2.62-.65-3.89-1-.39,1.33-.77,2.64-1.11,3.95,1.27.34,2.56.67,3.88,1C40.91,108.06,41.29,106.74,41.68,105.42Z"/></g></g></svg>